<svg xmlns="http://www.w3.org/2000/svg" xmlns:xlink="http://www.w3.org/1999/xlink" id="Layer_1" x="0px" y="0px" viewBox="0 0 752 752" style="enable-background:new 0 0 752 752;" xml:space="preserve"><style type="text/css">	.st0{fill:none;}	.st1{fill-rule:evenodd;clip-rule:evenodd;fill:#43ED9C;}</style><rect x="143" y="139.2" class="st0" width="466" height="473.6"></rect><g>	<path class="st1" d="M417.7,356.9c20.4,0.7,43.2,5.4,59.3,18.7c15.4,12.8,20.8,30.3,20.8,49.8v34.9H254.2v-34.9  c0-22.4,7.3-38.3,19.3-48.9c14.4-12.7,36.1-18.8,60.8-19.6l21.5-0.8V318c-29.4-18.5-42.3-38-42.9-74.3  c-0.7-39.6,19.8-76.8,63.1-76.8c43.3,0,63.8,36.5,63.1,76.3c-0.7,36.2-13.4,56.1-42.8,74.7v38.2L417.7,356.9z M276.3,190.1  c3.6-9.2,8.2-18,14-26.1c-33.6-7.1-65.5,7.1-81.2,38c-15.3,30.1-13.2,71.3,5.6,99.4c3.1,4.6,6.6,8.9,10.7,12.8  c-19.2,2.6-36.3,9.1-49.2,20.4c-14.8,13-23.7,31.8-23.7,57.4v52.5h55.7l0.3-27.7l-28.3,0V392c0-16.8,5.4-28.7,14.3-36.6  c10.9-9.6,27.4-14.2,46.3-14.8l19.8-0.7v-34.5c-9.3-5.8-16.4-9.5-22.9-19.3c-13.3-19.9-14.7-50.3-3.9-71.6  C242.3,197.6,257.1,189.3,276.3,190.1L276.3,190.1z M200.3,492.5l-21.8,9.6l-21.8-9.6l2.4,23.7l-15.9,17.8l23.3,5l12,20.6l12-20.6  l23.3-5l-15.9-17.8L200.3,492.5z M250.1,546.8l-15.9,17.8l23.3,5l12,20.6l12-20.6l23.3-5l-15.9-17.8l2.4-23.7l-21.8,9.6l-21.8-9.6  L250.1,546.8z M351.9,558.8l-19.7,22.1l28.9,6.3l14.9,25.6l14.9-25.6l28.9-6.3l-19.7-22.1l3-29.5L376,541.3l-27.1-11.9L351.9,558.8  z M447.3,564.5l23.3,5l12,20.6l12-20.6l23.3-5l-15.9-17.8l2.4-23.7l-21.8,9.6l-21.8-9.6l2.4,23.7L447.3,564.5z M554.1,516.1  l-15.9,17.8l23.3,5l12,20.6l12-20.6l23.3-5l-15.9-17.8l2.4-23.7l-21.8,9.6l-21.8-9.6L554.1,516.1z M556.5,354.7  c11.6,9.6,15.4,22.7,15.4,37.3v24.8h-28.3l0.3,27.7h55.7V392c0-22.9-7.5-43.7-25.5-58.6c-13.5-11.1-30.5-16.9-47.7-19.2  c4.1-3.9,7.7-8.3,10.8-13.1c18.8-28.3,20.8-69.1,5.6-99.5c-15.6-30.6-47.8-44.7-81-37.6c5.7,8.1,10.4,16.9,13.9,26  c19.3-0.8,33.6,7.2,42.5,24.1c10.8,21.3,9.1,51.8-4,71.7c-6.5,9.9-13.5,13.5-22.8,19.3v34.6l19.8,0.7  C526.7,341.1,544.3,344.7,556.5,354.7L556.5,354.7z M466.6,243.6c1-55.5-31.6-104.4-90.6-104.4c-59,0-91.7,49.7-90.7,105  c0.6,31.8,12.7,65.6,38.3,85.7c-26.9,2.3-50.8,10.4-68.3,25.8c-21.6,19.2-27.8,41.9-28.7,69.7V488h299v-62.6  c-1-28.5-7.9-52.1-30.9-71.1c-18.6-15.3-42.8-22.3-66.5-24.4C453.8,309.6,466,275.5,466.6,243.6L466.6,243.6z"></path></g></svg>