<svg xmlns="http://www.w3.org/2000/svg" xmlns:xlink="http://www.w3.org/1999/xlink" id="Layer_1" x="0px" y="0px" viewBox="0 0 752 752" style="enable-background:new 0 0 752 752;" xml:space="preserve"><style type="text/css">	.st0{fill:#43ED9C;}</style><g>	<path class="st0" d="M369.2,569.9H257.5c-35.4,0-64.2-28.8-64.2-64.2l0-179.3h365.6v53.9c0,7.4,6,13.3,13.3,13.3  c7.4,0,13.3-6,13.3-13.3l0-111.7c0-50.1-40.8-90.9-90.9-90.9h-7.1v-8.9c0-7.4-6-13.3-13.3-13.3s-13.3,6-13.3,13.3v8.9H291.2v-8.9  c0-7.4-6-13.3-13.3-13.3c-7.4,0-13.3,6-13.3,13.3v8.9h-7.1c-50.1,0-90.9,40.8-90.9,90.9v237.1c0,50.1,40.8,90.9,90.9,90.9h111.7  c7.4,0,13.3-6,13.3-13.3C382.5,575.8,376.6,569.9,369.2,569.9L369.2,569.9z M257.5,204.3h7.1v8.9c0,7.4,6,13.3,13.3,13.3  c7.4,0,13.3-6,13.3-13.3v-8.9h169.6v8.9c0,7.4,6,13.3,13.3,13.3s13.3-6,13.3-13.3v-8.9h7.1c35.4,0,64.2,28.8,64.2,64.2v31.2  l-365.5,0v-31.2C193.2,233.1,222,204.3,257.5,204.3L257.5,204.3z"></path>	<path class="st0" d="M292.6,391h-20.9c-7.4,0-13.3,6-13.3,13.3s6,13.3,13.3,13.3h20.9c7.4,0,13.3-6,13.3-13.3S300,391,292.6,391z"></path>	<path class="st0" d="M386.4,391h-20.9c-7.4,0-13.3,6-13.3,13.3s6,13.3,13.3,13.3h20.9c7.4,0,13.3-6,13.3-13.3S393.8,391,386.4,391z  "></path>	<path class="st0" d="M292.6,478.6h-20.9c-7.4,0-13.3,6-13.3,13.3c0,7.4,6,13.3,13.3,13.3h20.9c7.4,0,13.3-6,13.3-13.3  C306,484.6,300,478.6,292.6,478.6z"></path>	<path class="st0" d="M491.9,409.5c-51.5,0-93.5,41.9-93.5,93.5c0,51.5,41.9,93.5,93.5,93.5c51.5,0,93.5-41.9,93.5-93.5  C585.4,451.5,543.5,409.5,491.9,409.5L491.9,409.5z M491.9,569.9c-36.9,0-66.8-30-66.8-66.8c0-36.9,30-66.8,66.8-66.8  c36.9,0,66.8,30,66.8,66.8C558.8,539.9,528.8,569.9,491.9,569.9L491.9,569.9z"></path>	<path class="st0" d="M505.3,497.5v-32.2c0-7.4-6-13.3-13.3-13.3s-13.3,6-13.3,13.3V503c0,3.5,1.4,6.9,3.9,9.4l17.9,17.9  c2.6,2.6,6,3.9,9.4,3.9c3.4,0,6.8-1.3,9.4-3.9c5.2-5.2,5.2-13.6,0-18.8L505.3,497.5z"></path></g></svg>