<svg xmlns="http://www.w3.org/2000/svg" xmlns:xlink="http://www.w3.org/1999/xlink" id="Layer_1" x="0px" y="0px" viewBox="0 0 752 752" style="enable-background:new 0 0 752 752;" xml:space="preserve"><style type="text/css">	.st0{fill:none;}	.st1{fill:#43ED9C;}</style><rect x="139.2" y="139.2" class="st0" width="473.6" height="473.6"></rect><g>	<path class="st1" d="M342.2,139.2c-3.9,0-7.7,1.5-10.5,4.3c-2.8,2.8-4.4,6.5-4.4,10.4v38c-16.5,4.4-32.3,11-47.1,19.5l-26.9-26.9  c-2.8-2.8-6.5-4.3-10.5-4.3c-3.9,0-7.7,1.6-10.5,4.3l-47.8,47.9c-2.8,2.8-4.3,6.5-4.3,10.4s1.6,7.7,4.3,10.4l26.8,26.9  c-8.6,14.8-15.1,30.6-19.5,47.1h-38c-3.9,0-7.7,1.6-10.4,4.4c-2.8,2.8-4.3,6.6-4.3,10.5v67.6c0,3.9,1.5,7.7,4.3,10.5  c2.8,2.8,6.5,4.4,10.4,4.4h38.1c4.4,16.6,10.9,32.3,19.5,47.1l-26.9,26.9c-2.8,2.8-4.3,6.5-4.3,10.4c0,3.9,1.6,7.7,4.3,10.4  l47.8,47.8l0,0c2.8,2.8,6.5,4.3,10.5,4.3c3.9,0,7.7-1.6,10.5-4.3l26.9-26.9c14.8,8.6,30.5,15.2,47.1,19.6v37.9  c0,3.9,1.5,7.7,4.3,10.5c2.8,2.8,6.6,4.4,10.5,4.3h67.6c3.9,0,7.7-1.6,10.4-4.4c2.8-2.8,4.3-6.6,4.3-10.5V560  c16.5-4.4,32.3-11,47.1-19.6l26.9,26.9v0c2.8,2.8,6.5,4.3,10.5,4.3c3.9,0,7.7-1.6,10.5-4.3l47.9-47.8l0,0c2.8-2.8,4.3-6.5,4.3-10.4  c0-3.9-1.5-7.7-4.3-10.4l-26.9-26.9c8.6-14.8,15.2-30.5,19.6-47.1h37.9c3.9,0,7.7-1.5,10.5-4.3c2.8-2.8,4.4-6.6,4.3-10.5v-67.6  c0-3.9-1.5-7.7-4.3-10.5c-2.8-2.8-6.6-4.4-10.5-4.3h-38c-4.4-16.5-11-32.2-19.6-47l27-27c2.8-2.8,4.3-6.5,4.3-10.4  s-1.5-7.7-4.3-10.4l-47.9-47.9c-2.8-2.8-6.5-4.3-10.5-4.3c-3.9,0-7.7,1.6-10.5,4.3l-26.8,26.8c-14.8-8.6-30.7-15-47.2-19.4v-38  c0-3.9-1.6-7.6-4.3-10.4c-2.8-2.8-6.5-4.3-10.4-4.3L342.2,139.2z M356.9,168.8h38v32.7c0,3.4,1.2,6.8,3.4,9.4  c2.2,2.7,5.2,4.5,8.6,5.1c21.5,4.2,42,12.6,60.2,24.9c2.8,1.9,6.3,2.8,9.7,2.5c3.4-0.3,6.6-1.8,9.1-4.3L509,216l26.9,26.9  l-23.2,23.3v0c-2.4,2.4-3.9,5.6-4.2,9c-0.3,3.4,0.6,6.8,2.5,9.6c12.3,18.2,20.7,38.7,24.9,60.2v0c0.7,3.4,2.5,6.4,5.1,8.6  c2.7,2.2,6,3.4,9.4,3.4h32.8v38.1h-32.8c-3.4,0-6.8,1.2-9.4,3.4s-4.5,5.2-5.1,8.6c-4.2,21.5-12.6,42-24.9,60.2  c-1.9,2.9-2.8,6.3-2.5,9.7c0.3,3.4,1.9,6.6,4.3,9.1l23,23.2L509,535.9l-23.2-23.2c-2.4-2.4-5.6-3.9-9-4.2c-3.4-0.3-6.8,0.6-9.6,2.5  c-18.2,12.3-38.7,20.7-60.2,24.9c-3.4,0.7-6.4,2.5-8.6,5.1c-2.2,2.7-3.4,6-3.4,9.4v32.8h-38v-32.7c0-3.4-1.2-6.8-3.4-9.4  c-2.2-2.7-5.2-4.5-8.6-5.1c-21.5-4.2-42-12.6-60.2-24.9c-2.8-1.9-6.2-2.8-9.6-2.5c-3.4,0.3-6.6,1.8-9,4.2L242.9,536l-27-26.9  l23.3-23.3c2.4-2.4,3.9-5.6,4.3-9c0.3-3.4-0.5-6.8-2.4-9.7c-12.3-18.2-20.7-38.7-24.9-60.2c-0.7-3.4-2.5-6.4-5.1-8.6  c-2.7-2.2-6-3.4-9.4-3.4h-32.8V357h32.7c3.4,0,6.8-1.2,9.4-3.4s4.5-5.2,5.1-8.6c4.2-21.5,12.6-42,24.9-60.2  c1.9-2.8,2.8-6.3,2.5-9.7c-0.3-3.4-1.8-6.6-4.3-9.1L216,242.9l26.9-26.9l23.2,23.2c2.4,2.5,5.6,4,9.1,4.3c3.4,0.3,6.9-0.5,9.7-2.4  c18.2-12.3,38.6-20.7,60.1-24.9c3.4-0.7,6.4-2.5,8.6-5.1c2.2-2.7,3.4-6,3.4-9.4L356.9,168.8z M375.9,254.6  c-66.9,0-121.4,54.5-121.4,121.4c0,66.9,54.5,121.5,121.4,121.5c66.9,0,121.4-54.6,121.4-121.5S442.8,254.6,375.9,254.6z   M375.9,284.2c50.9,0,91.9,40.9,91.9,91.8s-41,91.9-91.9,91.9c-45.8,0-83.4-33.3-90.4-77h65.6l-7.9,7.4c-3.2,2.6-5.1,6.4-5.4,10.5  c-0.3,4.1,1.2,8.1,4,11.1c2.8,3,6.7,4.7,10.8,4.7c4.1,0,8-1.7,10.8-4.7l34.5-32.4l0.1,0v0c0.2-0.2,0.4-0.4,0.6-0.6  c0.3-0.3,0.6-0.5,0.8-0.8c0.1-0.1,0.2-0.2,0.2-0.2c0.1-0.2,0.3-0.3,0.4-0.5c0.2-0.2,0.3-0.4,0.5-0.7c0,0,0,0,0-0.1  c0.2-0.3,0.4-0.6,0.6-0.8c0.2-0.3,0.4-0.6,0.5-0.9c0.2-0.4,0.4-0.8,0.5-1.2c0-0.1,0.1-0.1,0.1-0.2c0-0.1,0.1-0.2,0.1-0.3  c0.1-0.3,0.2-0.6,0.3-0.9c0-0.1,0-0.1,0.1-0.2c0.1-0.3,0.1-0.5,0.2-0.8c0,0,0-0.1,0-0.1c0.1-0.4,0.1-0.7,0.2-1.1  c0-0.2,0.1-0.4,0.1-0.6c0-0.3,0-0.6,0-0.9c0-0.1,0-0.2,0-0.3V376c0-0.4,0-0.7-0.1-1.1c0-0.1,0-0.1,0-0.2c0,0,0-0.1,0-0.1  c0-0.4-0.1-0.8-0.1-1.2c0-0.1,0-0.1,0-0.1c0,0,0-0.1,0-0.1c-0.1-0.4-0.2-0.9-0.3-1.3c-0.1-0.5-0.3-0.9-0.5-1.4c0,0,0,0,0-0.1  c0,0,0,0,0,0c-0.1-0.3-0.3-0.7-0.4-1c-0.1-0.3-0.3-0.5-0.4-0.8c0,0,0-0.1-0.1-0.1c0,0,0-0.1-0.1-0.1c-0.2-0.3-0.4-0.6-0.6-1  c0-0.1-0.1-0.1-0.1-0.2c-0.2-0.2-0.3-0.4-0.5-0.7c0,0-0.1-0.1-0.1-0.1c-0.2-0.3-0.5-0.5-0.7-0.8c-0.1-0.1-0.1-0.1-0.1-0.2  c-0.1-0.1-0.2-0.2-0.3-0.3c-0.1-0.1-0.3-0.3-0.4-0.4l-34.8-32.6c-2.9-2.8-6.7-4.2-10.7-4.1c-3.9,0.1-7.6,1.8-10.3,4.7  s-4.1,6.7-3.9,10.6c0.2,3.9,1.9,7.6,4.8,10.3l7.9,7.4h-65.6C292.5,317.4,330.1,284.2,375.9,284.2L375.9,284.2z"></path></g></svg>