<svg xmlns="http://www.w3.org/2000/svg" xmlns:xlink="http://www.w3.org/1999/xlink" id="Layer_1" x="0px" y="0px" viewBox="0 0 752 752" style="enable-background:new 0 0 752 752;" xml:space="preserve"><style type="text/css">	.st0{fill:#43ED9C;}</style><path class="st0" d="M292.7,205.9c-3.2,0-6.2,1.2-8.4,3.5c-2.2,2.2-3.5,5.3-3.5,8.4v140.6c0,4.6,2.6,8.7,6.8,10.7 c4.1,2,9,1.4,12.6-1.5l47.6-38.6h111.6c3.2,0,6.2-1.2,8.4-3.5c2.2-2.2,3.5-5.3,3.5-8.4v-99.2c0-3.2-1.2-6.2-3.5-8.4 c-2.2-2.2-5.3-3.5-8.4-3.5L292.7,205.9z M304.5,229.6h143.1v75.6l-104,0c-2.7,0-5.3,0.9-7.4,2.6l-31.6,25.7L304.5,229.6z  M339.4,255.5L339.4,255.5c-3.2-0.1-6.3,1.1-8.5,3.4c-2.3,2.2-3.6,5.3-3.6,8.5c0,3.2,1.3,6.2,3.6,8.5c2.3,2.2,5.4,3.4,8.5,3.4h73.3 h0c6.4-0.1,11.6-5.4,11.6-11.8s-5.1-11.7-11.6-11.8L339.4,255.5z M236.6,368.2c-25.2,0-46,20.7-46,46c0,12.4,5.1,23.7,13.1,32 c-17.3,11-29,30.2-29,52.1v35h0c-0.3,4.1,1.5,8.2,4.9,10.6c3.4,2.4,7.8,2.9,11.6,1.3h95v-0.1c3.2,0.1,6.3-1.1,8.6-3.3 c2.3-2.2,3.6-5.3,3.6-8.5v-35c0-21.9-11.6-41.2-29-52.1c8.1-8.3,13.1-19.6,13.1-32C282.6,388.9,261.8,368.2,236.6,368.2L236.6,368.2 z M515.5,368.2c-25.2,0-46,20.7-46,46c0,12.4,5.1,23.7,13.1,32c-17.3,11-29,30.2-29,52.1v35c0,3.2,1.3,6.2,3.6,8.5 c2.3,2.2,5.4,3.4,8.6,3.4v0h99.6v0c6.5,0,11.8-5.3,11.8-11.8v-35c0-21.9-11.6-41.2-29-52.1c8.1-8.3,13.1-19.6,13.1-32 C561.4,388.9,540.7,368.2,515.5,368.2L515.5,368.2z M236.6,391.9c12.4,0,22.3,9.8,22.3,22.3c0,12.4-9.8,22.3-22.3,22.3 c-12.4,0-22.3-9.8-22.3-22.3C214.3,401.7,224.1,391.9,236.6,391.9z M515.5,391.9c12.4,0,22.3,9.8,22.3,22.3 c0,12.4-9.8,22.3-22.3,22.3c-12.4,0-22.3-9.8-22.3-22.3C493.2,401.7,503,391.9,515.5,391.9z M433.8,446.2L433.8,446.2 c-0.4,0-0.9,0-1.3,0h-113c-0.4,0-0.8,0-1.2,0c-5.5,0.7-9.8,5-10.4,10.5c-0.6,5.5,2.7,10.7,7.9,12.5v64.1v0c0,3.2,1.2,6.2,3.5,8.4 c2.2,2.2,5.3,3.5,8.4,3.5h96.6c3.2,0,6.2-1.2,8.4-3.5s3.5-5.3,3.5-8.4v-63.7c5.8-1.4,9.6-6.8,9-12.7 C444.6,450.9,439.8,446.4,433.8,446.2L433.8,446.2z M236.6,460.1c21.3,0,38.1,16.8,38.1,38.1v23.2l-76.3,0v-23.2 C198.4,476.9,215.2,460.1,236.6,460.1L236.6,460.1z M515.5,460.1c21.3,0,38.1,16.8,38.1,38.1v23.2l-76.2,0v-23.2 C477.4,476.9,494.1,460.1,515.5,460.1L515.5,460.1z M339.5,469.8h73v51.7l-73,0L339.5,469.8z"></path></svg>