<svg xmlns="http://www.w3.org/2000/svg" xmlns:xlink="http://www.w3.org/1999/xlink" id="Layer_1" x="0px" y="0px" viewBox="0 0 752 752" style="enable-background:new 0 0 752 752;" xml:space="preserve"><style type="text/css">	.st0{fill:#43ED9C;}</style><g>	<path class="st0" d="M588.4,312.1C564,214.6,476.5,146.4,376,146.4s-188,68.2-212.4,165.8c-2.2,7.2-0.7,14.4,2.9,20.8  c-5,45.9-1.4,42.3-2.9,127.7v0.7c0,29.4,22.2,53.8,50.9,56.7c2.2,12.2,12.9,20.8,25.1,20.8c15.1,0,25.8-12.2,25.8-26.6V409.7  c0-32.3-45.2-35.9-51.7-5.7c-2.9,0-5.7,0.7-7.9,1.4c0.7-33.7-1.4-31.6,2.2-64.6c5-3.6,8.6-9.3,10-15.8  c18.7-71.8,83.2-122,157.1-122s139.2,50.2,157.1,122c1.4,6.5,5.7,12.2,10,15.8c3.6,33,1.4,30.1,2.2,64.6c-2.9-0.7-5-1.4-7.9-1.4  c-1.4-6.5-5-12.2-10-15.8c-6.5-5-15.1-6.5-23.7-3.6c-10.8,3.6-17.2,13.6-17.2,25.1v102.6c0,14.4,10.8,26.6,25.8,26.6  c12.2,0,23-8.6,25.1-20.8c2.9,0,5.7-0.7,7.9-1.4V559c0,7.2-5.7,12.2-12.2,12.2h-122c-4.3-11.5-18.7-20.1-35.9-20.1  c-20.8,0-37.3,12.2-37.3,27.3c0,15.1,16.5,27.3,37.3,27.3c17.2,0,31.6-8.6,35.9-20.1h122c15.1,0,26.6-12.2,26.6-26.6v-48.1  c17.2-10,28-28,28.7-49.5c-1.4-90.4,2.9-81.1-2.9-128.4C589.1,326.5,590.5,319.3,588.4,312.1L588.4,312.1z M374.6,591.3  c-13.6,0-23-6.5-23-12.9c0-6.5,9.3-12.9,23-12.9c13.6,0,23,6.5,23,12.9C397.5,584.8,388.2,591.3,374.6,591.3z M190.9,347.3h2.2  c-2.2,23-0.7,17.9-1.4,64.6c-5,2.9-10,7.2-14.4,11.5c0.7-57.4-1.4-50.9,1.4-78.2C183,346.6,187.3,347.3,190.9,347.3L190.9,347.3z   M178,461.4L178,461.4c0-21.5,15.8-38.7,35.9-42.3v84.7C193.7,500.1,178,482.2,178,461.4z M228.2,409c0-6.5,5-11.5,11.5-11.5  c7.2,0,11.5,5.7,11.5,12.2v102.6c0,16.5-23,15.8-23,0.7L228.2,409z M376,188.7c-81.1,0-151.4,54.5-171.5,132.7  c-1.4,6.5-7.2,10.8-13.6,10.8c-10,0-15.8-9.3-13.6-17.2c23-90.4,104.8-154.3,198.8-154.3s175.8,63.9,198.8,155  c4.3,17.2-23,25.1-27.3,6.5C527.4,244,457.1,188.7,376,188.7L376,188.7z M559,347.3c4.3,0,8.6,0,13.6-2.2  c2.9,26.6,0.7,21.5,1.4,78.2c-4.3-4.3-8.6-8.6-14.4-11.5C559.7,366,561.1,370.3,559,347.3L559,347.3z M523.8,513  c0,15.1-23,15.8-23-0.7V409.7c0-5,2.9-10,7.9-11.5s8.6,0,10.8,1.4c2.9,2.2,5,5.7,5,9.3v104L523.8,513z M549.6,499.4  c-3.6,2.2-7.9,2.9-12.2,3.6v-84.7c20.1,3.6,35.9,20.8,35.9,42.3C574,477.9,564,492.2,549.6,499.4L549.6,499.4z"></path>	<path class="st0" d="M358.1,441.3c0.7,2.9,3.6,5,7.2,5h23c2.9,0,5.7-2.2,7.2-5l3.6-12.9c6.5-1.4,12.2-4.3,17.9-7.2l12.2,6.5  c2.9,1.4,6.5,1.4,8.6-1.4l15.8-15.8c2.2-2.2,2.9-5.7,1.4-8.6l-6.5-12.2c2.9-5.7,5.7-11.5,7.2-17.9l12.9-3.6c2.9-0.7,5-3.6,5-7.2  v-23c0-3.6-2.2-6.5-5.7-7.2c-0.7,0-7.9-2.2-12.9-3.6c-1.4-6.5-4.3-12.2-7.2-17.9l6.5-12.2c1.4-2.9,1.4-6.5-1.4-8.6L437,272.7  c-2.2-2.2-5.7-2.9-8.6-1.4l-12.2,6.5c-5.7-2.9-11.5-5.7-17.9-7.2l-3.6-12.9c-0.7-2.9-3.6-5-7.2-5h-23c-2.9,0-5.7,2.2-7.2,5  l-3.6,12.9c-6.5,1.4-12.2,4.3-17.9,7.2l-12.2-6.5c-2.9-1.4-6.5-0.7-8.6,1.4l-15.8,15.8c-2.2,2.2-2.9,5.7-1.4,8.6l6.5,12.2  c-2.9,5.7-5.7,11.5-7.2,17.9l-12.9,3.6c-2.9,0.7-5,3.6-5,7.2v23c0,2.9,2.2,5.7,5,7.2l12.9,3.6c1.4,6.5,4.3,12.2,7.2,17.9l-6.5,12.2  c-1.4,2.9-1.4,6.5,1.4,8.6l15.8,15.8c2.2,2.2,5.7,2.9,8.6,1.4l12.2-6.5c5.7,2.9,11.5,5.7,17.9,7.2L358.1,441.3z M332.9,406.1  l-11.5,5.7l-8.6-8.6l5.7-10.8c1.4-2.2,1.4-5,0-7.2c-4.3-6.5-7.2-13.6-8.6-21.5c-0.7-2.9-2.9-4.3-5-5l-12.2-3.6V343l12.2-3.6  c2.9-0.7,4.3-2.9,5-5c1.4-7.9,5-15.1,8.6-21.5c1.4-2.2,1.4-5,0-7.2l-5.7-10.8l8.6-8.6l10.8,5.7c2.2,1.4,5,1.4,7.2,0  c6.5-4.3,13.6-7.2,21.5-8.6c2.9-0.7,4.3-2.2,5-5l3.6-12.2h12.2l3.6,12.2c0.7,2.9,2.9,4.3,5,5c7.2,1.4,14.4,4.3,21.5,8.6  c2.2,1.4,5,1.4,7.2,0l10.8-5.7l8.6,8.6l-5.7,10.8c-1.4,2.2-1.4,5,0,7.2c4.3,6.5,7.2,13.6,8.6,21.5c0.7,2.9,2.2,4.3,5,5  c5.7,1.4,9.3,2.9,12.2,3.6v12.2l-12.2,3.6c-2.9,0.7-4.3,2.9-5,5c-1.4,7.9-5,15.1-8.6,21.5c-1.4,2.2-1.4,5,0,7.2l5.7,10.8l-7.9,8.6  l-11.5-5.7c-2.2-1.4-5-1.4-7.2,0c-6.5,4.3-13.6,7.2-21.5,8.6c-2.9,0.7-4.3,2.9-5,5l-3.6,12.2h-12.2l-3.6-12.2c-0.7-2.9-2.9-4.3-5-5  c-7.2-1.4-15.1-5-21.5-8.6C338,404.7,335.1,404.7,332.9,406.1L332.9,406.1z"></path>	<path class="st0" d="M376,381c8.6,0,16.5-3.6,22.2-9.3c7.2-7.2,10.8-17.9,8.6-28.7c-2.2-12.9-12.2-22.2-25.1-25.1  c-10.8-2.2-20.8,1.4-28.7,8.6c-7.2,7.2-10.8,17.9-8.6,28.7c2.2,12.9,12.2,22.2,25.1,25.1C371.7,381,373.8,381,376,381L376,381z   M358.8,352.3c-1.4-5.7,0.7-11.5,5-15.8c3.6-3.6,7.9-5,12.2-5h3.6c6.5,1.4,12.2,7.2,13.6,13.6c1.4,5.7-0.7,11.5-5,15.8  c-4.3,4.3-10,5.7-15.8,5C366,365.2,360.2,359.5,358.8,352.3L358.8,352.3z"></path></g></svg>